<svg width="630" height="277" viewBox="0 0 630 277" fill="none" xmlns="http://www.w3.org/2000/svg">
<path d="M314.825 276.535C227.929 276.535 149.278 261.044 92.3652 236.014C63.9085 223.498 40.9037 208.605 25.0186 192.088C9.13547 175.572 0.386828 157.451 0.386731 138.461C0.386733 119.471 9.13528 101.349 25.0186 84.833C40.9036 68.3155 63.9086 53.4235 92.3653 40.9082C149.278 15.8778 227.929 0.385707 314.825 0.385715C401.721 0.385744 480.372 15.8779 537.284 40.9082C565.741 53.4235 588.746 68.3156 604.631 84.833C620.514 101.349 629.264 119.471 629.264 138.461C629.264 157.451 620.514 175.572 604.631 192.088C588.746 208.605 565.741 223.498 537.284 236.014C480.372 261.044 401.721 276.535 314.825 276.535Z" stroke="url(#paint0_linear_5089_4887)" stroke-width="0.773527"/>
<defs>
<linearGradient id="paint0_linear_5089_4887" x1="315.303" y1="276.937" x2="315.303" y2="-10.5625" gradientUnits="userSpaceOnUse">
<stop stop-color="#7D5C6E" stop-opacity="0.42"/>
<stop offset="1" stop-color="#7D5C6E" stop-opacity="0.14"/>
</linearGradient>
</defs>
</svg>
